<mxfile host="65bd71144e">
    <diagram name="便携式指针式仪表数据智能读取装置架构图" id="architecture-diagram">
        <mxGraphModel dx="1580" dy="875" grid="1" gridSize="10" guides="1" tooltips="1" connect="1" arrows="1" fold="1" page="1" pageScale="1" pageWidth="1920" pageHeight="1600" math="0" shadow="0">
            <root>
                <mxCell id="0"/>
                <mxCell id="1" parent="0"/>
                <mxCell id="background" value="" style="rounded=0;whiteSpace=wrap;html=1;fillColor=#f5f5f5;strokeColor=none;opacity=50;" parent="1" vertex="1">
                    <mxGeometry width="1920" height="1730" as="geometry"/>
                </mxCell>
                <mxCell id="main-title" value="便携式指针式仪表数据智能读取装置系统架构图" style="text;html=1;strokeColor=none;fillColor=none;align=center;verticalAlign=middle;whiteSpace=wrap;rounded=0;fontSize=28;fontStyle=1;fontColor=#1565c0;fontFamily=Microsoft YaHei;" parent="1" vertex="1">
                    <mxGeometry x="660" y="30" width="600" height="50" as="geometry"/>
                </mxCell>
                <mxCell id="sub-title" value="端-边-云协同架构 | AI智能识别 | 工业4.0数字化解决方案" style="text;html=1;strokeColor=none;fillColor=none;align=center;verticalAlign=middle;whiteSpace=wrap;rounded=0;fontSize=14;fontColor=#666666;fontFamily=Microsoft YaHei;" parent="1" vertex="1">
                    <mxGeometry x="660" y="80" width="600" height="30" as="geometry"/>
                </mxCell>
                <mxCell id="user-interaction" value="" style="rounded=1;whiteSpace=wrap;html=1;fillColor=#e8f5e8;strokeColor=#4caf50;strokeWidth=3;shadow=1;glass=0;sketch=0;" parent="1" vertex="1">
                    <mxGeometry x="100" y="140" width="1720" height="120" as="geometry"/>
                </mxCell>
                <mxCell id="user-title" value="👥 用户交互层" style="text;html=1;strokeColor=none;fillColor=none;align=left;verticalAlign=middle;whiteSpace=wrap;rounded=0;fontSize=16;fontStyle=1;fontColor=#2e7d32;fontFamily=Microsoft YaHei;" parent="1" vertex="1">
                    <mxGeometry x="130" y="150" width="150" height="30" as="geometry"/>
                </mxCell>
                <mxCell id="operator" value="👨‍🔧&lt;br&gt;&lt;b&gt;巡检人员&lt;/b&gt;&lt;br&gt;&lt;font color=&quot;#666666&quot;&gt;现场操作&lt;/font&gt;" style="rounded=1;whiteSpace=wrap;html=1;fillColor=#ffffff;strokeColor=#4caf50;strokeWidth=2;shadow=1;fontFamily=Microsoft YaHei;gradientColor=#f1f8e9;" parent="1" vertex="1">
                    <mxGeometry x="500" y="190" width="140" height="60" as="geometry"/>
                </mxCell>
                <mxCell id="web-portal" value="💻&lt;br&gt;&lt;b&gt;管理平台&lt;/b&gt;&lt;br&gt;&lt;font color=&quot;#666666&quot;&gt;数据分析&lt;/font&gt;" style="rounded=1;whiteSpace=wrap;html=1;fillColor=#ffffff;strokeColor=#4caf50;strokeWidth=2;shadow=1;fontFamily=Microsoft YaHei;gradientColor=#f1f8e9;" parent="1" vertex="1">
                    <mxGeometry x="700" y="190" width="140" height="60" as="geometry"/>
                </mxCell>
                <mxCell id="dashboard" value="📊&lt;br&gt;&lt;b&gt;数据大屏&lt;/b&gt;&lt;br&gt;&lt;font color=&quot;#666666&quot;&gt;可视化展示&lt;/font&gt;" style="rounded=1;whiteSpace=wrap;html=1;fillColor=#ffffff;strokeColor=#4caf50;strokeWidth=2;shadow=1;fontFamily=Microsoft YaHei;gradientColor=#f1f8e9;" parent="1" vertex="1">
                    <mxGeometry x="900" y="190" width="140" height="60" as="geometry"/>
                </mxCell>
                <mxCell id="terminal-background" value="" style="rounded=1;whiteSpace=wrap;html=1;fillColor=#e3f2fd;strokeColor=#1976d2;strokeWidth=3;shadow=1;glass=0;sketch=0;" parent="1" vertex="1">
                    <mxGeometry x="100" y="320" width="1720" height="300" as="geometry"/>
                </mxCell>
                <mxCell id="terminal-title" value="📱 端侧设备层 (Terminal)" style="text;html=1;strokeColor=none;fillColor=none;align=left;verticalAlign=middle;whiteSpace=wrap;rounded=0;fontSize=18;fontStyle=1;fontColor=#1565c0;fontFamily=Microsoft YaHei;" parent="1" vertex="1">
                    <mxGeometry x="130" y="330" width="280" height="35" as="geometry"/>
                </mxCell>
                <mxCell id="terminal-desc" value="手机 + 拍摄杆组合 | 图像采集 | 蓝牙/WiFi传输" style="text;html=1;strokeColor=none;fillColor=none;align=left;verticalAlign=middle;whiteSpace=wrap;rounded=0;fontSize=14;fontColor=#666666;fontFamily=Microsoft YaHei;" parent="1" vertex="1">
                    <mxGeometry x="130" y="365" width="400" height="25" as="geometry"/>
                </mxCell>
                <mxCell id="shooting-pole" value="📐 拍摄杆机械结构" style="swimlane;whiteSpace=wrap;html=1;fillColor=#ffffff;strokeColor=#1976d2;strokeWidth=2;shadow=1;fontFamily=Microsoft YaHei;startSize=30;" parent="1" vertex="1">
                    <mxGeometry x="150" y="410" width="360" height="180" as="geometry"/>
                </mxCell>
                <mxCell id="pole-structure" value="🔧&lt;br&gt;&lt;b&gt;可折叠拍摄杆&lt;/b&gt;&lt;br&gt;&lt;font color=&quot;#666666&quot;&gt;伸缩式设计&lt;/font&gt;" style="rounded=1;whiteSpace=wrap;html=1;fillColor=#bbdefb;strokeColor=#1976d2;strokeWidth=2;fontFamily=Microsoft YaHei;" parent="shooting-pole" vertex="1">
                    <mxGeometry x="20" y="40" width="150" height="60" as="geometry"/>
                </mxCell>
                <mxCell id="phone-mount" value="📱&lt;br&gt;&lt;b&gt;手机固定夹具&lt;/b&gt;&lt;br&gt;&lt;font color=&quot;#666666&quot;&gt;万向调节&lt;/font&gt;" style="rounded=1;whiteSpace=wrap;html=1;fillColor=#bbdefb;strokeColor=#1976d2;strokeWidth=2;fontFamily=Microsoft YaHei;" parent="shooting-pole" vertex="1">
                    <mxGeometry x="190" y="40" width="150" height="60" as="geometry"/>
                </mxCell>
                <mxCell id="stabilizer" value="⚖️&lt;br&gt;&lt;b&gt;重力配平器&lt;/b&gt;&lt;br&gt;&lt;font color=&quot;#666666&quot;&gt;减震稳定&lt;/font&gt;" style="rounded=1;whiteSpace=wrap;html=1;fillColor=#bbdefb;strokeColor=#1976d2;strokeWidth=2;fontFamily=Microsoft YaHei;" parent="shooting-pole" vertex="1">
                    <mxGeometry x="20" y="110" width="150" height="60" as="geometry"/>
                </mxCell>
                <mxCell id="handle" value="🤝&lt;br&gt;&lt;b&gt;人体工学手柄&lt;/b&gt;&lt;br&gt;&lt;font color=&quot;#666666&quot;&gt;防滑设计&lt;/font&gt;" style="rounded=1;whiteSpace=wrap;html=1;fillColor=#bbdefb;strokeColor=#1976d2;strokeWidth=2;fontFamily=Microsoft YaHei;" parent="shooting-pole" vertex="1">
                    <mxGeometry x="190" y="110" width="150" height="60" as="geometry"/>
                </mxCell>
                <mxCell id="mobile-device" value="📱 手机设备" style="swimlane;whiteSpace=wrap;html=1;fillColor=#ffffff;strokeColor=#1976d2;strokeWidth=2;shadow=1;fontFamily=Microsoft YaHei;startSize=30;" parent="1" vertex="1">
                    <mxGeometry x="560" y="410" width="360" height="180" as="geometry"/>
                </mxCell>
                <mxCell id="phone-camera" value="📷&lt;br&gt;&lt;b&gt;手机摄像头&lt;/b&gt;&lt;br&gt;&lt;font color=&quot;#666666&quot;&gt;4K高清拍摄&lt;/font&gt;" style="rounded=1;whiteSpace=wrap;html=1;fillColor=#fff3e0;strokeColor=#f57c00;strokeWidth=2;fontFamily=Microsoft YaHei;" parent="mobile-device" vertex="1">
                    <mxGeometry x="20" y="40" width="150" height="60" as="geometry"/>
                </mxCell>
                <mxCell id="phone-app" value="📱&lt;br&gt;&lt;b&gt;拍摄应用&lt;/b&gt;&lt;br&gt;&lt;font color=&quot;#666666&quot;&gt;一键拍摄&lt;/font&gt;" style="rounded=1;whiteSpace=wrap;html=1;fillColor=#fff3e0;strokeColor=#f57c00;strokeWidth=2;fontFamily=Microsoft YaHei;" parent="mobile-device" vertex="1">
                    <mxGeometry x="190" y="40" width="150" height="60" as="geometry"/>
                </mxCell>
                <mxCell id="phone-storage" value="💾&lt;br&gt;&lt;b&gt;本地存储&lt;/b&gt;&lt;br&gt;&lt;font color=&quot;#666666&quot;&gt;图片缓存&lt;/font&gt;" style="rounded=1;whiteSpace=wrap;html=1;fillColor=#fff3e0;strokeColor=#f57c00;strokeWidth=2;fontFamily=Microsoft YaHei;" parent="mobile-device" vertex="1">
                    <mxGeometry x="20" y="110" width="150" height="60" as="geometry"/>
                </mxCell>
                <mxCell id="phone-comm" value="📡&lt;br&gt;&lt;b&gt;无线通信&lt;/b&gt;&lt;br&gt;&lt;font color=&quot;#666666&quot;&gt;蓝牙/WiFi&lt;/font&gt;" style="rounded=1;whiteSpace=wrap;html=1;fillColor=#fff3e0;strokeColor=#f57c00;strokeWidth=2;fontFamily=Microsoft YaHei;" parent="mobile-device" vertex="1">
                    <mxGeometry x="190" y="110" width="150" height="60" as="geometry"/>
                </mxCell>
                <mxCell id="backpack-desc" value="🎒&lt;br&gt;&lt;b&gt;背包式携带&lt;/b&gt;&lt;br&gt;&lt;font color=&quot;#666666&quot;&gt;便携移动&lt;/font&gt;" style="rounded=1;whiteSpace=wrap;html=1;fillColor=#ffffff;strokeColor=#1976d2;strokeWidth=2;shadow=1;fontFamily=Microsoft YaHei;" parent="1" vertex="1">
                    <mxGeometry x="980" y="450" width="140" height="100" as="geometry"/>
                </mxCell>
                <mxCell id="edge-background" value="" style="rounded=1;whiteSpace=wrap;html=1;fillColor=#f3e5f5;strokeColor=#7b1fa2;strokeWidth=3;shadow=1;glass=0;sketch=0;" parent="1" vertex="1">
                    <mxGeometry x="100" y="680" width="1720" height="350" as="geometry"/>
                </mxCell>
                <mxCell id="edge-title" value="⚡ 边缘计算层 (Edge)" style="text;html=1;strokeColor=none;fillColor=none;align=left;verticalAlign=middle;whiteSpace=wrap;rounded=0;fontSize=18;fontStyle=1;fontColor=#6a1b9a;fontFamily=Microsoft YaHei;" parent="1" vertex="1">
                    <mxGeometry x="130" y="690" width="280" height="35" as="geometry"/>
                </mxCell>
                <mxCell id="edge-desc" value="背包式边缘计算单元 | NVIDIA Jetson Xavier NX | 21 TOPS算力 | 实时AI推理" style="text;html=1;strokeColor=none;fillColor=none;align=left;verticalAlign=middle;whiteSpace=wrap;rounded=0;fontSize=14;fontColor=#666666;fontFamily=Microsoft YaHei;" parent="1" vertex="1">
                    <mxGeometry x="130" y="725" width="500" height="25" as="geometry"/>
                </mxCell>
                <mxCell id="ai-engine" value="🤖 AI推理引擎" style="swimlane;whiteSpace=wrap;html=1;fillColor=#ffffff;strokeColor=#7b1fa2;strokeWidth=2;shadow=1;fontFamily=Microsoft YaHei;startSize=30;" parent="1" vertex="1">
                    <mxGeometry x="150" y="770" width="450" height="120" as="geometry"/>
                </mxCell>
                <mxCell id="detection" value="🎯 目标检测 (PPYOLOE-Plus)" style="rounded=1;whiteSpace=wrap;html=1;fillColor=#fff8e1;strokeColor=#f57f17;strokeWidth=2;fontFamily=Microsoft YaHei;" parent="ai-engine" vertex="1">
                    <mxGeometry x="10" y="40" width="100" height="35" as="geometry"/>
                </mxCell>
                <mxCell id="segmentation" value="📐 指针分割 (OCRNet)" style="rounded=1;whiteSpace=wrap;html=1;fillColor=#fff8e1;strokeColor=#f57f17;strokeWidth=2;fontFamily=Microsoft YaHei;" vertex="1" parent="ai-engine">
                    <mxGeometry x="120" y="40" width="100" height="35" as="geometry"/>
                </mxCell>
                <mxCell id="endpoint" value="🔍 刻度定位 (HRNet)" style="rounded=1;whiteSpace=wrap;html=1;fillColor=#fff8e1;strokeColor=#f57f17;strokeWidth=2;fontFamily=Microsoft YaHei;" vertex="1" parent="ai-engine">
                    <mxGeometry x="230" y="40" width="100" height="35" as="geometry"/>
                </mxCell>
                <mxCell id="ocr" value="📝 数值读取 (PPOCRv3)" style="rounded=1;whiteSpace=wrap;html=1;fillColor=#fff8e1;strokeColor=#f57f17;strokeWidth=2;fontFamily=Microsoft YaHei;" parent="ai-engine" vertex="1">
                    <mxGeometry x="340" y="40" width="100" height="35" as="geometry"/>
                </mxCell>
                <mxCell id="data-process" value="💾 数据处理中心" style="swimlane;whiteSpace=wrap;html=1;fillColor=#ffffff;strokeColor=#7b1fa2;strokeWidth=2;shadow=1;fontFamily=Microsoft YaHei;startSize=30;" parent="1" vertex="1">
                    <mxGeometry x="630" y="770" width="400" height="120" as="geometry"/>
                </mxCell>
                <mxCell id="local-cache" value="💿 本地缓存 (512GB SSD)" style="rounded=1;whiteSpace=wrap;html=1;fillColor=#e8f5e8;strokeColor=#4caf50;strokeWidth=2;fontFamily=Microsoft YaHei;" parent="data-process" vertex="1">
                    <mxGeometry x="20" y="40" width="110" height="35" as="geometry"/>
                </mxCell>
                <mxCell id="data-sync" value="🔄 数据同步 (断点续传)" style="rounded=1;whiteSpace=wrap;html=1;fillColor=#e8f5e8;strokeColor=#4caf50;strokeWidth=2;fontFamily=Microsoft YaHei;" parent="data-process" vertex="1">
                    <mxGeometry x="145" y="40" width="110" height="35" as="geometry"/>
                </mxCell>
                <mxCell id="offline-mode" value="📴 离线模式 (网络断开可用)" style="rounded=1;whiteSpace=wrap;html=1;fillColor=#e8f5e8;strokeColor=#4caf50;strokeWidth=2;fontFamily=Microsoft YaHei;" parent="data-process" vertex="1">
                    <mxGeometry x="270" y="40" width="110" height="35" as="geometry"/>
                </mxCell>
                <mxCell id="hardware-platform" value="🚀 硬件平台" style="swimlane;whiteSpace=wrap;html=1;fillColor=#ffffff;strokeColor=#7b1fa2;strokeWidth=2;shadow=1;fontFamily=Microsoft YaHei;startSize=30;" parent="1" vertex="1">
                    <mxGeometry x="1050" y="770" width="320" height="70" as="geometry"/>
                </mxCell>
                <mxCell id="jetson" value="🖥️ NVIDIA Jetson Xavier NX | 21 TOPS | 6核ARM | 8GB内存" style="rounded=1;whiteSpace=wrap;html=1;fillColor=#e1bee7;strokeColor=#8e24aa;strokeWidth=2;fontFamily=Microsoft YaHei;" parent="hardware-platform" vertex="1">
                    <mxGeometry x="20" y="35" width="280" height="30" as="geometry"/>
                </mxCell>
                <mxCell id="communication" value="📡 通信协议栈" style="swimlane;whiteSpace=wrap;html=1;fillColor=#ffffff;strokeColor=#7b1fa2;strokeWidth=2;shadow=1;fontFamily=Microsoft YaHei;startSize=30;" parent="1" vertex="1">
                    <mxGeometry x="1420" y="770" width="320" height="120" as="geometry"/>
                </mxCell>
                <mxCell id="wifi" value="📶 WiFi 6&lt;br&gt;300Mbps+" style="rounded=1;whiteSpace=wrap;html=1;fillColor=#e3f2fd;strokeColor=#1976d2;strokeWidth=2;fontFamily=Microsoft YaHei;" parent="communication" vertex="1">
                    <mxGeometry x="20" y="40" width="65" height="35" as="geometry"/>
                </mxCell>
                <mxCell id="bluetooth" value="🔵 蓝牙5.2&lt;br&gt;BLE" style="rounded=1;whiteSpace=wrap;html=1;fillColor=#e3f2fd;strokeColor=#1976d2;strokeWidth=2;fontFamily=Microsoft YaHei;" parent="communication" vertex="1">
                    <mxGeometry x="95" y="40" width="65" height="35" as="geometry"/>
                </mxCell>
                <mxCell id="4g5g" value="📱 4G/5G&lt;br&gt;移动网络" style="rounded=1;whiteSpace=wrap;html=1;fillColor=#e3f2fd;strokeColor=#1976d2;strokeWidth=2;fontFamily=Microsoft YaHei;" parent="communication" vertex="1">
                    <mxGeometry x="170" y="40" width="65" height="35" as="geometry"/>
                </mxCell>
                <mxCell id="ethernet" value="🌐 以太网&lt;br&gt;千兆" style="rounded=1;whiteSpace=wrap;html=1;fillColor=#e3f2fd;strokeColor=#1976d2;strokeWidth=2;fontFamily=Microsoft YaHei;" parent="communication" vertex="1">
                    <mxGeometry x="245" y="40" width="65" height="35" as="geometry"/>
                </mxCell>
                <mxCell id="cloud-background" value="" style="rounded=1;whiteSpace=wrap;html=1;fillColor=#fff3e0;strokeColor=#f57c00;strokeWidth=3;shadow=1;glass=0;sketch=0;" parent="1" vertex="1">
                    <mxGeometry x="100" y="1090" width="1720" height="380" as="geometry"/>
                </mxCell>
                <mxCell id="cloud-title" value="☁️ 云端服务层 (Cloud)" style="text;html=1;strokeColor=none;fillColor=none;align=left;verticalAlign=middle;whiteSpace=wrap;rounded=0;fontSize=18;fontStyle=1;fontColor=#e65100;fontFamily=Microsoft YaHei;" parent="1" vertex="1">
                    <mxGeometry x="130" y="1100" width="280" height="35" as="geometry"/>
                </mxCell>
                <mxCell id="cloud-desc" value="分布式微服务架构 | 大数据分析 | 智能决策支持" style="text;html=1;strokeColor=none;fillColor=none;align=left;verticalAlign=middle;whiteSpace=wrap;rounded=0;fontSize=14;fontColor=#666666;fontFamily=Microsoft YaHei;" parent="1" vertex="1">
                    <mxGeometry x="130" y="1135" width="400" height="25" as="geometry"/>
                </mxCell>
                <mxCell id="cloud-ai" value="🧠 多模态大模型辅助中心" style="swimlane;whiteSpace=wrap;html=1;fillColor=#ffffff;strokeColor=#f57c00;strokeWidth=2;shadow=1;fontFamily=Microsoft YaHei;startSize=30;" parent="1" vertex="1">
                    <mxGeometry x="150" y="1180" width="820" height="90" as="geometry"/>
                </mxCell>
                <mxCell id="multimodal" value="🔍 多模态大模型&lt;br&gt;智能辅助引擎" style="rounded=1;whiteSpace=wrap;html=1;fillColor=#fff8e1;strokeColor=#f57f17;strokeWidth=2;fontFamily=Microsoft YaHei;" parent="cloud-ai" vertex="1">
                    <mxGeometry x="30" y="40" width="180" height="40" as="geometry"/>
                </mxCell>
                <mxCell id="anomaly-detect" value="⚠️ 异常检测&lt;br&gt;智能预警系统" style="rounded=1;whiteSpace=wrap;html=1;fillColor=#fff8e1;strokeColor=#f57f17;strokeWidth=2;fontFamily=Microsoft YaHei;" parent="cloud-ai" vertex="1">
                    <mxGeometry x="240" y="40" width="180" height="40" as="geometry"/>
                </mxCell>
                <mxCell id="quality-check" value="✅ 数据质量管控&lt;br&gt;智能评估算法" style="rounded=1;whiteSpace=wrap;html=1;fillColor=#fff8e1;strokeColor=#f57f17;strokeWidth=2;fontFamily=Microsoft YaHei;" parent="cloud-ai" vertex="1">
                    <mxGeometry x="450" y="40" width="180" height="40" as="geometry"/>
                </mxCell>
                <mxCell id="model-update" value="🔄 模型更新&lt;br&gt;持续优化机制" style="rounded=1;whiteSpace=wrap;html=1;fillColor=#fff8e1;strokeColor=#f57f17;strokeWidth=2;fontFamily=Microsoft YaHei;" parent="cloud-ai" vertex="1">
                    <mxGeometry x="660" y="40" width="140" height="40" as="geometry"/>
                </mxCell>
                <mxCell id="data-service" value="📊 数据服务平台" style="swimlane;whiteSpace=wrap;html=1;fillColor=#ffffff;strokeColor=#f57c00;strokeWidth=2;shadow=1;fontFamily=Microsoft YaHei;startSize=30;" parent="1" vertex="1">
                    <mxGeometry x="1020" y="1180" width="350" height="90" as="geometry"/>
                </mxCell>
                <mxCell id="database" value="🗄️ 分布式数据库 | 海量存储集群" style="rounded=1;whiteSpace=wrap;html=1;fillColor=#e8f5e8;strokeColor=#4caf50;strokeWidth=2;fontFamily=Microsoft YaHei;" parent="data-service" vertex="1">
                    <mxGeometry x="20" y="40" width="310" height="20" as="geometry"/>
                </mxCell>
                <mxCell id="device-archive" value="📋 设备数字档案 | 全生命周期管理" style="rounded=1;whiteSpace=wrap;html=1;fillColor=#e8f5e8;strokeColor=#4caf50;strokeWidth=2;fontFamily=Microsoft YaHei;" parent="data-service" vertex="1">
                    <mxGeometry x="20" y="65" width="310" height="20" as="geometry"/>
                </mxCell>
                <mxCell id="analysis-service" value="📈 智能分析服务" style="swimlane;whiteSpace=wrap;html=1;fillColor=#ffffff;strokeColor=#f57c00;strokeWidth=2;shadow=1;fontFamily=Microsoft YaHei;startSize=30;" parent="1" vertex="1">
                    <mxGeometry x="1420" y="1180" width="350" height="90" as="geometry"/>
                </mxCell>
                <mxCell id="realtime-monitor" value="📺 实时监控中心 | 关键指标预警" style="rounded=1;whiteSpace=wrap;html=1;fillColor=#e8f5e8;strokeColor=#4caf50;strokeWidth=2;fontFamily=Microsoft YaHei;" parent="analysis-service" vertex="1">
                    <mxGeometry x="20" y="40" width="310" height="20" as="geometry"/>
                </mxCell>
                <mxCell id="trend-analysis" value="📊 趋势分析引擎 | AI预测算法" style="rounded=1;whiteSpace=wrap;html=1;fillColor=#e8f5e8;strokeColor=#4caf50;strokeWidth=2;fontFamily=Microsoft YaHei;" parent="analysis-service" vertex="1">
                    <mxGeometry x="20" y="65" width="310" height="20" as="geometry"/>
                </mxCell>
                <mxCell id="security" value="🔒 安全管理中心" style="swimlane;whiteSpace=wrap;html=1;fillColor=#ffffff;strokeColor=#f57c00;strokeWidth=2;shadow=1;fontFamily=Microsoft YaHei;startSize=30;" parent="1" vertex="1">
                    <mxGeometry x="150" y="1300" width="1620" height="90" as="geometry"/>
                </mxCell>
                <mxCell id="user-auth" value="👤 用户认证&lt;br&gt;权限管理系统" style="rounded=1;whiteSpace=wrap;html=1;fillColor=#fce4ec;strokeColor=#e91e63;strokeWidth=2;fontFamily=Microsoft YaHei;" parent="security" vertex="1">
                    <mxGeometry x="50" y="40" width="180" height="40" as="geometry"/>
                </mxCell>
                <mxCell id="data-encrypt" value="🔐 数据加密&lt;br&gt;传输安全协议" style="rounded=1;whiteSpace=wrap;html=1;fillColor=#fce4ec;strokeColor=#e91e63;strokeWidth=2;fontFamily=Microsoft YaHei;" parent="security" vertex="1">
                    <mxGeometry x="260" y="40" width="180" height="40" as="geometry"/>
                </mxCell>
                <mxCell id="audit-log" value="📝 审计日志&lt;br&gt;操作追踪系统" style="rounded=1;whiteSpace=wrap;html=1;fillColor=#fce4ec;strokeColor=#e91e63;strokeWidth=2;fontFamily=Microsoft YaHei;" parent="security" vertex="1">
                    <mxGeometry x="470" y="40" width="180" height="40" as="geometry"/>
                </mxCell>
                <mxCell id="compliance" value="📋 合规管理&lt;br&gt;标准认证体系" style="rounded=1;whiteSpace=wrap;html=1;fillColor=#fce4ec;strokeColor=#e91e63;strokeWidth=2;fontFamily=Microsoft YaHei;" parent="security" vertex="1">
                    <mxGeometry x="680" y="40" width="180" height="40" as="geometry"/>
                </mxCell>
                <mxCell id="disaster-recovery" value="🔄 灾难恢复&lt;br&gt;业务连续性保障" style="rounded=1;whiteSpace=wrap;html=1;fillColor=#fce4ec;strokeColor=#e91e63;strokeWidth=2;fontFamily=Microsoft YaHei;" parent="security" vertex="1">
                    <mxGeometry x="890" y="40" width="180" height="40" as="geometry"/>
                </mxCell>
                <mxCell id="flow-terminal-edge" value="" style="edgeStyle=orthogonalEdgeStyle;rounded=1;orthogonalLoop=1;jettySize=auto;html=1;strokeColor=#1976d2;strokeWidth=5;endArrow=classic;shadow=1;" parent="1" source="mobile-device" target="ai-engine" edge="1">
                    <mxGeometry relative="1" as="geometry">
                        <mxPoint x="740" y="620" as="sourcePoint"/>
                        <mxPoint x="350" y="770" as="targetPoint"/>
                        <Array as="points">
                            <mxPoint x="500" y="530"/>
                        </Array>
                    </mxGeometry>
                </mxCell>
                <mxCell id="flow-terminal-edge-label" value="📱 手机无线传输&lt;br&gt;&lt;b&gt;仪表图像数据&lt;/b&gt;" style="edgeLabel;html=1;align=center;verticalAlign=middle;resizable=0;points=[];fontSize=14;fontFamily=Microsoft YaHei;fillColor=#e3f2fd;strokeColor=#1976d2;rounded=1;fontStyle=1;" parent="flow-terminal-edge" vertex="1" connectable="0">
                    <mxGeometry x="-0.1" y="1" relative="1" as="geometry">
                        <mxPoint x="10" y="-20" as="offset"/>
                    </mxGeometry>
                </mxCell>
                <mxCell id="flow-edge-cloud" value="" style="edgeStyle=orthogonalEdgeStyle;rounded=1;orthogonalLoop=1;jettySize=auto;html=1;strokeColor=#f57c00;strokeWidth=5;endArrow=classic;shadow=1;" parent="1" source="data-process" target="cloud-ai" edge="1">
                    <mxGeometry relative="1" as="geometry">
                        <mxPoint x="800" y="920" as="sourcePoint"/>
                        <mxPoint x="560" y="1180" as="targetPoint"/>
                    </mxGeometry>
                </mxCell>
                <mxCell id="flow-edge-cloud-label" value="📶 网络传输&lt;br&gt;&lt;b&gt;AI识别结果数据&lt;/b&gt;" style="edgeLabel;html=1;align=center;verticalAlign=middle;resizable=0;points=[];fontSize=14;fontFamily=Microsoft YaHei;fillColor=#fff3e0;strokeColor=#f57c00;rounded=1;fontStyle=1;" parent="flow-edge-cloud" vertex="1" connectable="0">
                    <mxGeometry x="-0.1" y="1" relative="1" as="geometry">
                        <mxPoint x="10" y="-20" as="offset"/>
                    </mxGeometry>
                </mxCell>
                <mxCell id="flow-user-terminal" value="" style="edgeStyle=orthogonalEdgeStyle;rounded=1;orthogonalLoop=1;jettySize=auto;html=1;strokeColor=#4caf50;strokeWidth=4;endArrow=classic;dashed=1;dashPattern=8 8;" parent="1" source="operator" target="mobile-device" edge="1">
                    <mxGeometry relative="1" as="geometry">
                        <mxPoint x="570" y="260" as="sourcePoint"/>
                        <mxPoint x="740" y="410" as="targetPoint"/>
                    </mxGeometry>
                </mxCell>
                <mxCell id="flow-user-terminal-label" value="手持拍摄操作" style="edgeLabel;html=1;align=center;verticalAlign=middle;resizable=0;points=[];fontSize=12;fontFamily=Microsoft YaHei;fillColor=#e8f5e8;strokeColor=#4caf50;rounded=1;" parent="flow-user-terminal" vertex="1" connectable="0">
                    <mxGeometry x="-0.1" y="1" relative="1" as="geometry">
                        <mxPoint as="offset"/>
                    </mxGeometry>
                </mxCell>
                <mxCell id="flow-cloud-web" value="" style="edgeStyle=orthogonalEdgeStyle;rounded=1;orthogonalLoop=1;jettySize=auto;html=1;strokeColor=#9c27b0;strokeWidth=4;endArrow=classic;dashed=1;dashPattern=8 8;" parent="1" source="analysis-service" target="web-portal" edge="1">
                    <mxGeometry relative="1" as="geometry">
                        <mxPoint x="1595" y="1180" as="sourcePoint"/>
                        <mxPoint x="770" y="260" as="targetPoint"/>
                        <Array as="points">
                            <mxPoint x="1595" y="1160"/>
                            <mxPoint x="1880" y="1160"/>
                            <mxPoint x="1880" y="290"/>
                            <mxPoint x="770" y="290"/>
                        </Array>
                    </mxGeometry>
                </mxCell>
                <mxCell id="flow-cloud-web-label" value="数据展示" style="edgeLabel;html=1;align=center;verticalAlign=middle;resizable=0;points=[];fontSize=12;fontFamily=Microsoft YaHei;fillColor=#f3e5f5;strokeColor=#9c27b0;rounded=1;" parent="flow-cloud-web" vertex="1" connectable="0">
                    <mxGeometry x="-0.1" y="1" relative="1" as="geometry">
                        <mxPoint as="offset"/>
                    </mxGeometry>
                </mxCell>
                <mxCell id="flow-cloud-dashboard" value="" style="edgeStyle=orthogonalEdgeStyle;rounded=1;orthogonalLoop=1;jettySize=auto;html=1;strokeColor=#e91e63;strokeWidth=4;endArrow=classic;dashed=1;dashPattern=8 8;" parent="1" source="realtime-monitor" target="dashboard" edge="1">
                    <mxGeometry relative="1" as="geometry">
                        <mxPoint x="1595" y="1210" as="sourcePoint"/>
                        <mxPoint x="970" y="260" as="targetPoint"/>
                        <Array as="points">
                            <mxPoint x="1575" y="1160"/>
                            <mxPoint x="1850" y="1160"/>
                            <mxPoint x="1850" y="290"/>
                            <mxPoint x="970" y="290"/>
                        </Array>
                    </mxGeometry>
                </mxCell>
                <mxCell id="flow-cloud-dashboard-label" value="可视化展示" style="edgeLabel;html=1;align=center;verticalAlign=middle;resizable=0;points=[];fontSize=12;fontFamily=Microsoft YaHei;fillColor=#fce4ec;strokeColor=#e91e63;rounded=1;" parent="flow-cloud-dashboard" vertex="1" connectable="0">
                    <mxGeometry x="-0.1" y="1" relative="1" as="geometry">
                        <mxPoint as="offset"/>
                    </mxGeometry>
                </mxCell>
                <mxCell id="tech-title" value="🚀 核心技术栈" style="text;html=1;strokeColor=none;fillColor=none;align=left;verticalAlign=middle;whiteSpace=wrap;rounded=0;fontSize=16;fontStyle=1;fontColor=#1565c0;fontFamily=Microsoft YaHei;" parent="1" vertex="1">
                    <mxGeometry x="130" y="1520" width="150" height="30" as="geometry"/>
                </mxCell>
                <mxCell id="tech-mechanical" value="🔧 机械设计&lt;br&gt;可折叠拍摄杆 | 万向固定夹具 | 重力配平" style="rounded=1;whiteSpace=wrap;html=1;fillColor=#bbdefb;strokeColor=#1976d2;strokeWidth=2;fontFamily=Microsoft YaHei;shadow=1;" parent="1" vertex="1">
                    <mxGeometry x="130" y="1560" width="200" height="50" as="geometry"/>
                </mxCell>
                <mxCell id="tech-ai" value="🤖 AI算法&lt;br&gt;PPYOLOE-Plus | OCRNet | HRNet | PPOCRv3" style="rounded=1;whiteSpace=wrap;html=1;fillColor=#fff8e1;strokeColor=#f57f17;strokeWidth=2;fontFamily=Microsoft YaHei;shadow=1;" parent="1" vertex="1">
                    <mxGeometry x="350" y="1560" width="200" height="50" as="geometry"/>
                </mxCell>
                <mxCell id="tech-hardware" value="⚡ 硬件平台&lt;br&gt;NVIDIA Jetson Xavier NX | ARM Cortex-A78" style="rounded=1;whiteSpace=wrap;html=1;fillColor=#e1bee7;strokeColor=#8e24aa;strokeWidth=2;fontFamily=Microsoft YaHei;shadow=1;" parent="1" vertex="1">
                    <mxGeometry x="570" y="1560" width="200" height="50" as="geometry"/>
                </mxCell>
                <mxCell id="tech-comm" value="📡 通信协议&lt;br&gt;WiFi 6 | 蓝牙5.2 | 5G | LoRaWAN" style="rounded=1;whiteSpace=wrap;html=1;fillColor=#e3f2fd;strokeColor=#1976d2;strokeWidth=2;fontFamily=Microsoft YaHei;shadow=1;" parent="1" vertex="1">
                    <mxGeometry x="790" y="1560" width="200" height="50" as="geometry"/>
                </mxCell>
                <mxCell id="tech-cloud" value="☁️ 云端架构&lt;br&gt;微服务 | Kubernetes | 大数据分析" style="rounded=1;whiteSpace=wrap;html=1;fillColor=#ffcc80;strokeColor=#f57c00;strokeWidth=2;fontFamily=Microsoft YaHei;shadow=1;" parent="1" vertex="1">
                    <mxGeometry x="1010" y="1560" width="200" height="50" as="geometry"/>
                </mxCell>
                <mxCell id="performance-title" value="📊 性能指标" style="text;html=1;strokeColor=none;fillColor=none;align=left;verticalAlign=middle;whiteSpace=wrap;rounded=0;fontSize=16;fontStyle=1;fontColor=#1565c0;fontFamily=Microsoft YaHei;" parent="1" vertex="1">
                    <mxGeometry x="1250" y="1520" width="150" height="30" as="geometry"/>
                </mxCell>
                <mxCell id="performance-accuracy" value="🎯 识别准确率&lt;br&gt;&lt;b&gt;≥95%&lt;/b&gt;&lt;br&gt;&lt;font size=&quot;2&quot;&gt;(±4%误差)&lt;/font&gt;" style="rounded=1;whiteSpace=wrap;html=1;fillColor=#c8e6c9;strokeColor=#4caf50;strokeWidth=2;fontFamily=Microsoft YaHei;shadow=1;" parent="1" vertex="1">
                    <mxGeometry x="1250" y="1560" width="100" height="50" as="geometry"/>
                </mxCell>
                <mxCell id="performance-speed" value="⚡ 响应时间&lt;br&gt;&lt;b&gt;≤3秒&lt;/b&gt;" style="rounded=1;whiteSpace=wrap;html=1;fillColor=#c8e6c9;strokeColor=#4caf50;strokeWidth=2;fontFamily=Microsoft YaHei;shadow=1;" parent="1" vertex="1">
                    <mxGeometry x="1370" y="1560" width="100" height="50" as="geometry"/>
                </mxCell>
                <mxCell id="performance-precision" value="📏 读数精度&lt;br&gt;&lt;b&gt;±4%≥95%&lt;/b&gt;&lt;br&gt;&lt;font size=&quot;2&quot;&gt;±2%≥90%&lt;/font&gt;" style="rounded=1;whiteSpace=wrap;html=1;fillColor=#c8e6c9;strokeColor=#4caf50;strokeWidth=2;fontFamily=Microsoft YaHei;shadow=1;" parent="1" vertex="1">
                    <mxGeometry x="1490" y="1560" width="100" height="50" as="geometry"/>
                </mxCell>
                <mxCell id="performance-battery" value="🔋 续航时间&lt;br&gt;&lt;b&gt;8-10小时&lt;/b&gt;" style="rounded=1;whiteSpace=wrap;html=1;fillColor=#c8e6c9;strokeColor=#4caf50;strokeWidth=2;fontFamily=Microsoft YaHei;shadow=1;" parent="1" vertex="1">
                    <mxGeometry x="1610" y="1560" width="100" height="50" as="geometry"/>
                </mxCell>
                <mxCell id="performance-weight" value="⚖️ 设备重量&lt;br&gt;&lt;b&gt;≤3kg&lt;/b&gt;" style="rounded=1;whiteSpace=wrap;html=1;fillColor=#c8e6c9;strokeColor=#4caf50;strokeWidth=2;fontFamily=Microsoft YaHei;shadow=1;" parent="1" vertex="1">
                    <mxGeometry x="1730" y="1560" width="100" height="50" as="geometry"/>
                </mxCell>
                <mxCell id="2" value="🤖 大模型辅助&lt;br style=&quot;border-color: var(--border-color);&quot;&gt;&lt;b style=&quot;border-color: var(--border-color);&quot;&gt;异常检测&lt;/b&gt;&lt;br style=&quot;border-color: var(--border-color);&quot;&gt;&lt;font style=&quot;border-color: var(--border-color);&quot; size=&quot;2&quot;&gt;(趋势分析)&lt;/font&gt;" style="rounded=1;whiteSpace=wrap;html=1;fillColor=#c8e6c9;strokeColor=#4caf50;strokeWidth=2;fontFamily=Microsoft YaHei;shadow=1;" parent="1" vertex="1">
                    <mxGeometry x="1250" y="1630" width="100" height="50" as="geometry"/>
                </mxCell>
            </root>
        </mxGraphModel>
    </diagram>
</mxfile>